<svg width="74" height="74" viewBox="0 0 74 74" fill="none" xmlns="http://www.w3.org/2000/svg">
<rect width="73.7991" height="73.7991" rx="36.8996" fill="#24292E"/>
<g filter="url(#filter0_i_207_344)">
<g clip-path="url(#clip0_207_344)">
<g filter="url(#filter1_i_207_344)">
<path d="M51.2276 57.8204C54.2522 56.6518 56.6434 54.2606 57.812 51.236C58.3652 49.8032 58.7524 48.1685 58.8576 45.7773C58.8824 45.2172 58.9018 44.7469 58.9198 44.2753V28.2989C58.9073 27.9656 58.8935 27.6185 58.8755 27.2285C58.7704 24.8373 58.3832 23.1943 57.83 21.7698C57.2588 20.2582 56.3792 18.9042 55.2286 17.7799C54.1028 16.6361 52.7406 15.7482 51.2455 15.1867C49.8127 14.6335 48.178 14.2463 45.7868 14.1412C43.3776 14.0264 42.6129 14.0001 36.5041 14.0001C30.3954 14.0001 29.6293 14.0264 27.2298 14.1315C24.8386 14.2366 23.1956 14.6239 21.7711 15.1771C20.2594 15.7482 18.9055 16.6278 17.7797 17.7799C16.6374 18.9056 15.7495 20.2679 15.1866 21.7615C14.6334 23.1943 14.2462 24.829 14.1411 27.2202C14.0263 29.6294 14 30.3942 14 36.5043C14 42.6144 14.0263 43.3792 14.1314 45.7787C14.2365 48.1699 14.6237 49.8142 15.1783 51.2374C15.7495 52.749 16.6374 54.1029 17.7797 55.2287C18.9055 56.371 20.2677 57.2603 21.7628 57.8218C23.1956 58.375 24.8303 58.7623 27.2215 58.8674C29.621 58.9739 30.3858 59.0001 36.4958 59.0001C42.6059 59.0001 43.3694 58.9739 45.7702 58.8674C48.1614 58.7623 49.8045 58.375 51.2289 57.8218L51.2276 57.8204ZM36.5124 54.9549C30.5075 54.9549 29.7869 54.9286 27.422 54.8235C25.2244 54.7267 24.0378 54.3574 23.2467 54.0504C22.2717 53.6894 21.3838 53.1182 20.6619 52.3714C19.9151 51.6412 19.3425 50.763 18.9829 49.7866C18.6759 48.9955 18.3067 47.7992 18.2098 45.6113C18.1047 43.2381 18.0785 42.5259 18.0785 36.5209C18.0785 30.5159 18.1047 29.7954 18.2098 27.4318C18.3067 25.2342 18.6759 24.0476 18.9829 23.2565C19.3439 22.2801 19.9151 21.3923 20.6716 20.6717C21.4004 19.9249 22.28 19.3537 23.255 18.9927C24.0461 18.6857 25.2424 18.3165 27.4303 18.2197C29.8035 18.1145 30.5158 18.0883 36.5194 18.0883C42.523 18.0883 43.2449 18.1145 45.6098 18.2197C47.8074 18.3165 48.994 18.6857 49.7851 18.9927C50.7601 19.3537 51.648 19.9249 52.3685 20.6717C53.1153 21.4019 53.6879 22.2801 54.0475 23.2565C54.3545 24.0476 54.7238 25.2425 54.8206 27.4318C54.9257 29.805 54.952 30.5173 54.952 36.5209C54.952 42.5245 54.9257 43.2284 54.8206 45.6016C54.7238 47.7992 54.3545 48.9858 54.0475 49.7769C53.291 51.738 51.7351 53.2939 49.7754 54.049C48.9843 54.356 47.7894 54.7253 45.6001 54.8221C43.2269 54.9272 42.5147 54.9535 36.5111 54.9535L36.5124 54.9549Z" fill="white"/>
<path d="M36.5041 24.9423C30.1216 24.9423 24.9437 30.1202 24.9437 36.5027C24.9437 42.8853 30.1216 48.0632 36.5041 48.0632C42.8867 48.0632 48.0632 42.8853 48.0632 36.5027C48.0632 30.1202 42.8853 24.9423 36.5041 24.9423ZM36.5041 44C32.3635 44 29.0055 40.6421 29.0055 36.5014C29.0055 32.3607 32.3635 29.0027 36.5041 29.0027C40.6448 29.0027 44.0028 32.3607 44.0028 36.5014C44.0028 40.6421 40.6448 44 36.5041 44Z" fill="white"/>
<path d="M51.2193 24.486C51.2193 22.9951 50.0105 21.7878 48.5196 21.7878C47.0288 21.7878 45.8214 22.9965 45.8214 24.486C45.8214 25.9755 47.0302 27.1842 48.5196 27.1842C50.0091 27.1842 51.2193 25.9769 51.2193 24.486Z" fill="white"/>
</g>
</g>
</g>
<defs>
<filter id="filter0_i_207_344" x="14" y="14.0001" width="45" height="45.5" filterUnits="userSpaceOnUse" color-interpolation-filters="sRGB">
<feFlood flood-opacity="0" result="BackgroundImageFix"/>
<feBlend mode="normal" in="SourceGraphic" in2="BackgroundImageFix" result="shape"/>
<feColorMatrix in="SourceAlpha" type="matrix" values="0 0 0 0 0 0 0 0 0 0 0 0 0 0 0 0 0 0 127 0" result="hardAlpha"/>
<feOffset dy="0.5"/>
<feGaussianBlur stdDeviation="1.25"/>
<feComposite in2="hardAlpha" operator="arithmetic" k2="-1" k3="1"/>
<feColorMatrix type="matrix" values="0 0 0 0 0 0 0 0 0 0 0 0 0 0 0 0 0 0 0.2 0"/>
<feBlend mode="normal" in2="shape" result="effect1_innerShadow_207_344"/>
</filter>
<filter id="filter1_i_207_344" x="14" y="14.0001" width="44.9198" height="45.5" filterUnits="userSpaceOnUse" color-interpolation-filters="sRGB">
<feFlood flood-opacity="0" result="BackgroundImageFix"/>
<feBlend mode="normal" in="SourceGraphic" in2="BackgroundImageFix" result="shape"/>
<feColorMatrix in="SourceAlpha" type="matrix" values="0 0 0 0 0 0 0 0 0 0 0 0 0 0 0 0 0 0 127 0" result="hardAlpha"/>
<feOffset dy="0.5"/>
<feGaussianBlur stdDeviation="1.25"/>
<feComposite in2="hardAlpha" operator="arithmetic" k2="-1" k3="1"/>
<feColorMatrix type="matrix" values="0 0 0 0 0 0 0 0 0 0 0 0 0 0 0 0 0 0 0.1 0"/>
<feBlend mode="normal" in2="shape" result="effect1_innerShadow_207_344"/>
</filter>
<clipPath id="clip0_207_344">
<rect width="45" height="45" fill="white" transform="translate(14 14.0001)"/>
</clipPath>
</defs>
</svg>
