<svg width="74" height="74" viewBox="0 0 74 74" fill="none" xmlns="http://www.w3.org/2000/svg">
<rect width="73.7991" height="73.7991" rx="36.8996" fill="#24292E"/>
<g filter="url(#filter0_i_207_339)">
<path d="M19.4523 34.5653C19.4523 34.5653 37.1434 26.7196 43.2789 23.9569C45.631 22.8519 53.6072 19.3156 53.6072 19.3156C53.6072 19.3156 57.2887 17.7686 56.9818 21.5257C56.8795 23.0729 56.0615 28.4875 55.2434 34.3443C54.0162 42.6323 52.6869 51.6936 52.6869 51.6936C52.6869 51.6936 52.4824 54.2353 50.744 54.6773C49.0056 55.1193 46.1422 53.1303 45.631 52.6882C45.2218 52.3568 37.9614 47.3839 35.3027 44.9528C34.5868 44.2898 33.7688 42.9639 35.4048 41.4167C39.0863 37.77 43.4834 33.2394 46.1422 30.3662C47.3694 29.0401 48.5964 25.946 43.4834 29.7031C36.223 35.1179 29.0648 40.2012 29.0648 40.2012C29.0648 40.2012 27.4286 41.3061 24.3608 40.3116C21.2929 39.3172 17.7138 37.991 17.7138 37.991C17.7138 37.991 15.2597 36.3335 19.4523 34.5653Z" fill="white"/>
</g>
<defs>
<filter id="filter0_i_207_339" x="14" y="14.0001" width="45" height="45.5" filterUnits="userSpaceOnUse" color-interpolation-filters="sRGB">
<feFlood flood-opacity="0" result="BackgroundImageFix"/>
<feBlend mode="normal" in="SourceGraphic" in2="BackgroundImageFix" result="shape"/>
<feColorMatrix in="SourceAlpha" type="matrix" values="0 0 0 0 0 0 0 0 0 0 0 0 0 0 0 0 0 0 127 0" result="hardAlpha"/>
<feOffset dy="0.5"/>
<feGaussianBlur stdDeviation="1.25"/>
<feComposite in2="hardAlpha" operator="arithmetic" k2="-1" k3="1"/>
<feColorMatrix type="matrix" values="0 0 0 0 0 0 0 0 0 0 0 0 0 0 0 0 0 0 0.1 0"/>
<feBlend mode="normal" in2="shape" result="effect1_innerShadow_207_339"/>
</filter>
</defs>
</svg>
