<svg width="200" height="200" viewBox="0 0 200 200" fill="none" xmlns="http://www.w3.org/2000/svg">
<circle cx="100" cy="100" r="100" fill="#FE4300"/>
<path d="M59.3995 143V125.72C59.3995 124.269 59.3995 123.373 59.3995 123.032C59.3995 122.605 59.3995 122.307 59.3995 122.136C59.3995 121.965 59.3995 121.624 59.3995 121.112V120.984C59.3995 120.387 59.3995 120.045 59.3995 119.96C59.3995 119.789 59.3995 119.491 59.3995 119.064C59.3995 118.552 59.3995 117.613 59.3995 116.248V109.72C59.3995 108.269 59.3995 107.373 59.3995 107.032C59.3995 106.605 59.3995 106.307 59.3995 106.136C59.3995 105.965 59.3995 105.624 59.3995 105.112V104.984C59.3995 104.387 59.3995 104.045 59.3995 103.96C59.3995 103.789 59.3995 103.491 59.3995 103.064C59.3995 102.552 59.3995 101.613 59.3995 100.248V87.448C61.4475 87.448 63.1542 87.2347 64.5195 86.808C65.9702 86.296 67.3355 85.3147 68.6155 83.864C69.8955 82.328 71.4315 80.1093 73.2235 77.208L88.7115 51.352H113.544L127.88 76.824C129.501 79.64 130.824 81.816 131.848 83.352C132.957 84.888 134.194 85.9547 135.56 86.552C137.01 87.1493 139.016 87.448 141.576 87.448V143H99.7195V125.72C99.7195 124.269 99.7195 123.373 99.7195 123.032C99.7195 122.605 99.7195 122.307 99.7195 122.136C99.7195 121.965 99.7195 121.624 99.7195 121.112V120.984C99.7195 120.387 99.7195 120.045 99.7195 119.96C99.7195 119.789 99.7195 119.491 99.7195 119.064C99.7195 118.552 99.7195 117.613 99.7195 116.248V109.72C99.7195 108.269 99.7195 107.373 99.7195 107.032C99.7195 106.605 99.7195 106.307 99.7195 106.136C99.7195 105.965 99.7195 105.624 99.7195 105.112V104.984C99.7195 104.387 99.7195 104.045 99.7195 103.96C99.7195 103.789 99.7195 103.491 99.7195 103.064C99.7195 102.552 99.7195 101.613 99.7195 100.248V86.808H101.768C103.133 86.808 104.2 86.424 104.968 85.656C105.736 84.8027 106.12 83.736 106.12 82.456C106.12 81.2613 105.736 80.28 104.968 79.512C104.2 78.744 103.133 78.36 101.768 78.36H88.9675C87.4315 78.36 86.3222 78.8293 85.6395 79.768C84.9568 80.6213 84.6155 81.56 84.6155 82.584C84.6155 83.9493 85.0422 85.016 85.8955 85.784C86.8342 86.4667 87.8582 86.808 88.9675 86.808H92.2955V143H59.3995ZM88.9675 70.808H101.384L95.2395 60.184L88.9675 70.808Z" fill="white"/>
</svg>
