<svg width="64" height="64" viewBox="0 0 64 64" fill="none" xmlns="http://www.w3.org/2000/svg">
<circle cx="32" cy="32" r="32" fill="#FE4300"/>
<path d="M16.7472 48.1599V41.6799C16.7472 41.1359 16.7472 40.7999 16.7472 40.6719C16.7472 40.5119 16.7472 40.3999 16.7472 40.3359C16.7472 40.2719 16.7472 40.1439 16.7472 39.9519V39.9039C16.7472 39.6799 16.7472 39.5519 16.7472 39.5199C16.7472 39.4559 16.7472 39.3439 16.7472 39.1839C16.7472 38.9919 16.7472 38.6399 16.7472 38.1279V35.6799C16.7472 35.1359 16.7472 34.7999 16.7472 34.6719C16.7472 34.5119 16.7472 34.3999 16.7472 34.3359C16.7472 34.2719 16.7472 34.1439 16.7472 33.9519V33.9039C16.7472 33.6799 16.7472 33.5519 16.7472 33.5199C16.7472 33.4559 16.7472 33.3439 16.7472 33.1839C16.7472 32.9919 16.7472 32.6399 16.7472 32.1279V27.3279C17.5152 27.3279 18.1552 27.2479 18.6672 27.0879C19.2112 26.8959 19.7232 26.5279 20.2032 25.9839C20.6832 25.4079 21.2592 24.5759 21.9312 23.4879L27.7392 13.7919H37.0512L42.4272 23.3439C43.0352 24.3999 43.5312 25.2159 43.9152 25.7919C44.3312 26.3679 44.7952 26.7679 45.3072 26.9919C45.8512 27.2159 46.6032 27.3279 47.5632 27.3279V48.1599H31.8672V41.6799C31.8672 41.1359 31.8672 40.7999 31.8672 40.6719C31.8672 40.5119 31.8672 40.3999 31.8672 40.3359C31.8672 40.2719 31.8672 40.1439 31.8672 39.9519V39.9039C31.8672 39.6799 31.8672 39.5519 31.8672 39.5199C31.8672 39.4559 31.8672 39.3439 31.8672 39.1839C31.8672 38.9919 31.8672 38.6399 31.8672 38.1279V35.6799C31.8672 35.1359 31.8672 34.7999 31.8672 34.6719C31.8672 34.5119 31.8672 34.3999 31.8672 34.3359C31.8672 34.2719 31.8672 34.1439 31.8672 33.9519V33.9039C31.8672 33.6799 31.8672 33.5519 31.8672 33.5199C31.8672 33.4559 31.8672 33.3439 31.8672 33.1839C31.8672 32.9919 31.8672 32.6399 31.8672 32.1279V27.0879H32.6352C33.1472 27.0879 33.5472 26.9439 33.8352 26.6559C34.1232 26.3359 34.2672 25.9359 34.2672 25.4559C34.2672 25.0079 34.1232 24.6399 33.8352 24.3519C33.5472 24.0639 33.1472 23.9199 32.6352 23.9199H27.8352C27.2592 23.9199 26.8432 24.0959 26.5872 24.4479C26.3312 24.7679 26.2032 25.1199 26.2032 25.5039C26.2032 26.0159 26.3632 26.4159 26.6832 26.7039C27.0352 26.9599 27.4192 27.0879 27.8352 27.0879H29.0832V48.1599H16.7472ZM27.8352 21.0879H32.4912L30.1872 17.1039L27.8352 21.0879Z" fill="white"/>
</svg>
